<svg xmlns="http://www.w3.org/2000/svg" width="214.164" height="54.505" viewBox="0 0 214.164 54.505">
  <g id="멤퍼니로고_블루_" data-name="멤퍼니로고 (블루)" transform="translate(0.75 0.5)">
    <g id="그룹_2781" data-name="그룹 2781">
      <path id="패스_725" data-name="패스 725" d="M129.416,25.8a9.366,9.366,0,0,1,3.413,7.222,9.655,9.655,0,0,1-3.413,7.333,11.767,11.767,0,0,1-8.209,3.108h-7.554V54.95H107.27V22.76h13.937A11.907,11.907,0,0,1,129.416,25.8ZM124.37,36.743a3.922,3.922,0,0,0,1.854-3.717,3.615,3.615,0,0,0-1.854-3.542,8.112,8.112,0,0,0-3.985-1.024h-6.742v9.353h6.742A7.779,7.779,0,0,0,124.37,36.743Z" transform="translate(-9.022 -2.229)" fill="#194ca0" stroke="#194ca0" stroke-miterlimit="10" stroke-width="1.5"/>
      <path id="패스_726" data-name="패스 726" d="M155.605,54.908l-2.9-7.047H138.68l-2.85,7.047h-6.65l12.987-32.1h7.056l13.033,32.1h-6.65Zm-9.869-24.525-4.7,11.788H150.4l-4.658-11.788Z" transform="translate(-10.723 -2.232)" fill="#194ca0" stroke="#194ca0" stroke-miterlimit="10" stroke-width="1.5"/>
      <path id="패스_727" data-name="패스 727" d="M186.431,54.84,173.85,32.879l-.267.046V54.886H167.2V22.53h7.287l12.765,22.007.267-.046V22.567h6.337v32.19l-7.425.083Z" transform="translate(-13.675 -2.211)" fill="#194ca0" stroke="#194ca0" stroke-miterlimit="10" stroke-width="1.5"/>
      <path id="패스_728" data-name="패스 728" d="M216.393,43.231V54.89h-6.429V43.453L198.02,22.58h7.056l8.052,13.872,7.96-13.872h7.1L216.375,43.241Z" transform="translate(-16.069 -2.215)" fill="#194ca0" stroke="#194ca0" stroke-miterlimit="10" stroke-width="1.5"/>
      <g id="그룹_2779" data-name="그룹 2779" transform="translate(97.889)">
        <path id="패스_729" data-name="패스 729" d="M120.217,10.019a4.025,4.025,0,0,1,.756,2.859,4.5,4.5,0,0,1-1.882,3.394,7.079,7.079,0,0,1-4.455,1.356H106.88V.528L114.609.5A6.028,6.028,0,0,1,118.5,1.681a4.317,4.317,0,0,1,1.7,2.684,3.608,3.608,0,0,1-.36,2.536,4.528,4.528,0,0,1-1.42,1.559,5.258,5.258,0,0,1,1.789,1.559ZM116.076,6.7a1.679,1.679,0,0,0,.683-1.439,1.466,1.466,0,0,0-.683-1.273,3.391,3.391,0,0,0-1.891-.461h-3.9v3.68h3.874A3.162,3.162,0,0,0,116.076,6.7Zm.673,7.2a2.062,2.062,0,0,0,.738-1.54,2.01,2.01,0,0,0-.71-1.513,3.217,3.217,0,0,0-2.251-.664h-4.234v4.4h4.169a3.3,3.3,0,0,0,2.3-.683Z" transform="translate(-106.88 -0.5)" fill="#e71717" stroke="#e71717" stroke-miterlimit="10" stroke-width="1"/>
        <path id="패스_730" data-name="패스 730" d="M124.59,17.557V.53h12.691l.028,3.007h-9.316V7.374l8.836.018v2.961h-8.836v4.234H137.5v3.007l-12.9-.046Z" transform="translate(-108.255 -0.502)" fill="#e71717" stroke="#e71717" stroke-miterlimit="10" stroke-width="1"/>
        <path id="패스_731" data-name="패스 731" d="M151.906,17.6l-4.888-6.484h-2.334V17.6l-3.394-.046V.5h7.388a6.685,6.685,0,0,1,4.372,1.494,4.583,4.583,0,0,1,1.817,3.671,5.09,5.09,0,0,1-1.116,3.182,5.348,5.348,0,0,1-2.73,1.928l5.1,6.825h-4.215ZM150.338,7.427a2.066,2.066,0,0,0,.895-1.771,1.686,1.686,0,0,0-.895-1.6,4.191,4.191,0,0,0-2.168-.517h-3.486V8.072h3.486a3.629,3.629,0,0,0,2.168-.636Z" transform="translate(-109.552 -0.5)" fill="#e71717" stroke="#e71717" stroke-miterlimit="10" stroke-width="1"/>
      </g>
      <g id="그룹_2780" data-name="그룹 2780" transform="translate(41.275 35.51)">
        <path id="패스_732" data-name="패스 732" d="M61.872,50.6a9.357,9.357,0,0,1-2.463,4.27A7.242,7.242,0,0,1,53.847,57a7.759,7.759,0,0,1-6.106-2.536A9.47,9.47,0,0,1,45.5,47.948,9.255,9.255,0,0,1,47.741,41.5a7.806,7.806,0,0,1,6.106-2.49c2.573,0,4.418.719,5.691,2.149a8.86,8.86,0,0,1,2.269,4.031l-3.662-.018a5.306,5.306,0,0,0-1.282-2.121,3.8,3.8,0,0,0-2.9-1.033,4.3,4.3,0,0,0-3.56,1.623,6.678,6.678,0,0,0-1.291,4.307,6.969,6.969,0,0,0,1.291,4.363,4.247,4.247,0,0,0,3.56,1.679,3.7,3.7,0,0,0,2.878-1.125,6.328,6.328,0,0,0,1.393-2.26h3.634Z" transform="translate(-45.5 -39.001)" fill="#067afe" stroke="#067afe" stroke-miterlimit="10" stroke-width="1"/>
        <path id="패스_733" data-name="패스 733" d="M79.071,41.49a9.135,9.135,0,0,1,2.3,6.447,9.346,9.346,0,0,1-2.3,6.512,8.618,8.618,0,0,1-12.212,0,9.4,9.4,0,0,1-2.269-6.512,9.186,9.186,0,0,1,2.269-6.447,8.731,8.731,0,0,1,12.212,0ZM76.5,52.273a6.946,6.946,0,0,0,1.31-4.335,6.646,6.646,0,0,0-1.31-4.27,4.239,4.239,0,0,0-3.523-1.651,4.147,4.147,0,0,0-3.486,1.651,6.921,6.921,0,0,0-1.245,4.27,7.178,7.178,0,0,0,1.245,4.335,4.068,4.068,0,0,0,3.486,1.7A4.181,4.181,0,0,0,76.5,52.273Z" transform="translate(-46.982 -39)" fill="#067afe" stroke="#067afe" stroke-miterlimit="10" stroke-width="1"/>
        <path id="패스_734" data-name="패스 734" d="M98.848,56.6l.028-9.491-.148-.018-3.2,9.491H91.719l-3.127-9.279-.148.018V56.54l-3.394.046V39.44h3.929l4.639,12.821L98.157,39.44h4.123V56.614h-3.44Z" transform="translate(-48.571 -39.034)" fill="#067afe" stroke="#067afe" stroke-miterlimit="10" stroke-width="1"/>
      </g>
      <path id="패스_735" data-name="패스 735" d="M26.317,33.184l.046-17.829-.267-.046L20.165,33.138H13.109l-5.8-17.432-.267.046V33.064l-6.29.083V.92H8.037l8.6,24.092L25.054.92H32.7V33.184Z" transform="translate(-0.75 -0.533)" fill="#194ca0" stroke="#194ca0" stroke-miterlimit="10" stroke-width="1.5"/>
      <path id="패스_736" data-name="패스 736" d="M94.278,33.184l.046-17.829-.267-.046L88.126,33.138H81.07L75.278,15.7l-.267.046V33.055l-6.29.083V.92h7.287l8.6,24.092L93.015.92h7.646V33.184Z" transform="translate(-6.028 -0.533)" fill="#194ca0" stroke="#194ca0" stroke-miterlimit="10" stroke-width="1.5"/>
      <path id="패스_737" data-name="패스 737" d="M38.87,33.065V1.06H62.722l.046,5.654H45.253v7.222l16.611.046v5.571H45.253v7.96H63.128v5.654L38.87,33.084Z" transform="translate(-3.71 -0.543)" fill="#194ca0" stroke="#194ca0" stroke-miterlimit="10" stroke-width="1.5"/>
    </g>
  </g>
</svg>
