<svg xmlns="http://www.w3.org/2000/svg" width="263.678" height="68.51" viewBox="0 0 263.678 68.51">
  <g id="멤퍼니글자로고_흰색_" data-name="멤퍼니글자로고(흰색)" transform="translate(0.25 0.25)">
    <g id="그룹_2446" data-name="그룹 2446" transform="translate(-0.25 -0.25)">
      <path id="패스_640" data-name="패스 640" d="M130.85,67.7h-8.66V27.22h18.56q5.955,0,9.42,3.51,3.405,3.465,3.41,9.5a14,14,0,0,1-2.43,7.8q-3.525,5.115-10.71,5.11h-9.58V67.7Zm7.68-21.48q4.11,0,5.63-2.53a7.611,7.611,0,0,0,.81-3.82,5.005,5.005,0,0,0-1.84-4.34q-1.785-1.335-5.68-1.34h-6.6V46.22Z" fill="#fff" stroke="#fff" stroke-miterlimit="10" stroke-width="0.5"/>
      <path id="패스_641" data-name="패스 641" d="M156.75,67.7h-9.09l14.99-40.49h9.96L187.38,67.7h-9.31l-2.76-8.37H159.67l-2.92,8.37Zm5.3-15.34h10.77l-5.25-16.01h-.16l-5.36,16.01Z" fill="#fff" stroke="#fff" stroke-miterlimit="10" stroke-width="0.5"/>
      <path id="패스_642" data-name="패스 642" d="M215.61,27.22h8.01V67.71h-8.55L198.3,38.89h-.16V67.71h-8.06V27.22h9.14l16.34,28.25h.05V27.22Z" fill="#fff" stroke="#fff" stroke-miterlimit="10" stroke-width="0.5"/>
      <path id="패스_643" data-name="패스 643" d="M249.62,67.7h-8.66V52.41L226.3,27.21h10.17l8.93,17.71,8.12-17.71h9.74L249.63,52.57V67.7Z" fill="#fff" stroke="#fff" stroke-miterlimit="10" stroke-width="0.5"/>
      <g id="그룹_2444" data-name="그룹 2444">
        <path id="패스_644" data-name="패스 644" d="M121.88.31h11.05a6.892,6.892,0,0,1,5.33,1.92,5.054,5.054,0,0,1,1.35,3.57,4.8,4.8,0,0,1-1.01,3.24,5.287,5.287,0,0,1-1.67,1.24v.03a4.8,4.8,0,0,1,2.71,2.12,5.885,5.885,0,0,1,.72,3.05,5.84,5.84,0,0,1-.55,2.47,5.789,5.789,0,0,1-1.38,1.98,5.933,5.933,0,0,1-2.25,1.4,15.6,15.6,0,0,1-4.63.52h-9.67V.31Zm4.43,8.46h5.73a3.87,3.87,0,0,0,2.25-.58,2.057,2.057,0,0,0,.95-1.81,2.033,2.033,0,0,0-.89-1.87,4.686,4.686,0,0,0-2.45-.49h-5.58V8.77Zm0,9.4h5.93a3.8,3.8,0,0,0,2.59-.77,3.082,3.082,0,0,0,.92-2.45,2.316,2.316,0,0,0-1.04-2.01,3.955,3.955,0,0,0-2.22-.58H126.3v5.8Z" fill="#e71717" stroke="#e71717" stroke-miterlimit="10" stroke-width="0.5"/>
        <path id="패스_645" data-name="패스 645" d="M159.7,4.13H148.07V8.69h10.65v3.76H148.07v5.6h12.12v3.79H143.55V.31H159.7V4.13Z" fill="#e71717" stroke="#e71717" stroke-miterlimit="10" stroke-width="0.5"/>
        <path id="패스_646" data-name="패스 646" d="M162.92.31h11.17c2.51,0,4.38.78,5.58,2.34a6.034,6.034,0,0,1,1.27,3.76,5.775,5.775,0,0,1-.89,3.19,4.645,4.645,0,0,1-2.5,1.95,4,4,0,0,1,2.04,1.51,7.817,7.817,0,0,1,.75,3.98,23.7,23.7,0,0,0,.12,3.16,1.353,1.353,0,0,0,.89,1.1v.55h-5.12a8.843,8.843,0,0,1-.35-1.73,23.616,23.616,0,0,1-.12-2.61,6.129,6.129,0,0,0-.52-3.16c-.44-.62-1.45-.93-3.02-.93h-4.78v8.43h-4.52V.31Zm9.9,9.53a4.142,4.142,0,0,0,2.65-.69,2.829,2.829,0,0,0,.86-2.31,2.863,2.863,0,0,0-.58-1.87,3.163,3.163,0,0,0-2.56-.96h-5.76V9.83h5.38Z" fill="#e71717" stroke="#e71717" stroke-miterlimit="10" stroke-width="0.5"/>
      </g>
      <g id="그룹_2445" data-name="그룹 2445">
        <path id="패스_647" data-name="패스 647" d="M66.57,53.33a5.8,5.8,0,0,0-1.14-2.34,4.759,4.759,0,0,0-3.71-1.37,5.015,5.015,0,0,0-3.65,1.43c-1.28,1.28-1.93,3.27-1.93,5.96a9.129,9.129,0,0,0,1.28,5.08,4.809,4.809,0,0,0,4.29,2.23,4.728,4.728,0,0,0,3.15-1.04,5.23,5.23,0,0,0,1.69-3.02h4.7A10.314,10.314,0,0,1,68.13,66a9.485,9.485,0,0,1-6.54,2.25,9.565,9.565,0,0,1-7.32-2.88c-1.91-2.01-2.86-4.83-2.86-8.43s.98-6.36,2.95-8.38a9.693,9.693,0,0,1,7.27-2.86,9.929,9.929,0,0,1,7.21,2.61,7.884,7.884,0,0,1,2.42,5.03h-4.7Z" fill="#067afe" stroke="#067afe" stroke-miterlimit="10" stroke-width="0.5"/>
        <path id="패스_648" data-name="패스 648" d="M77.53,47.51a11.9,11.9,0,0,1,12.81,0q4.23,2.88,4.23,9.45c0,4.38-1.41,7.47-4.23,9.4a11.746,11.746,0,0,1-12.81,0q-4.2-2.88-4.2-9.4C73.33,52.62,74.73,49.43,77.53,47.51ZM80.01,62.9a5.51,5.51,0,0,0,3.94,1.48,5.438,5.438,0,0,0,3.91-1.48q2.07-1.92,2.07-5.93c0-2.67-.69-4.69-2.07-5.99a5.471,5.471,0,0,0-3.91-1.48,5.543,5.543,0,0,0-3.94,1.48q-2.04,1.95-2.04,5.99c0,2.69.68,4.65,2.04,5.93Z" fill="#067afe" stroke="#067afe" stroke-miterlimit="10" stroke-width="0.5"/>
        <path id="패스_649" data-name="패스 649" d="M118.61,67.73h-4.35V51l-4.17,16.73H105.6L101.51,51h-.09V67.73H97.07V46.19h6.83l4.06,16.29h.03l3.91-16.29h6.71V67.73Z" fill="#067afe" stroke="#067afe" stroke-miterlimit="10" stroke-width="0.5"/>
      </g>
      <path id="패스_650" data-name="패스 650" d="M40.18,40.74H32.12V9.29L24.38,40.74H16.05L8.47,9.29H8.31V40.74H.25V.25H12.91l7.52,30.62h.05L27.74.25H40.18Z" fill="#fff" stroke="#fff" stroke-miterlimit="10" stroke-width="0.5"/>
      <path id="패스_651" data-name="패스 651" d="M118.36,40.74H110.3V9.29l-7.74,31.45H94.23L86.66,9.29H86.5V40.74H78.44V.25H91.1l7.52,30.62h.05L105.91.25h12.44V40.74Z" fill="#fff" stroke="#fff" stroke-miterlimit="10" stroke-width="0.5"/>
      <path id="패스_652" data-name="패스 652" d="M74.07,7.43H52.21V16H72.23v7.07H52.21V33.6H74.99v7.13H43.72V.25H74.07Z" fill="#fff" stroke="#fff" stroke-miterlimit="10" stroke-width="0.5"/>
    </g>
  </g>
</svg>
