<svg xmlns="http://www.w3.org/2000/svg" width="47.29" height="11.85" viewBox="0 0 47.29 11.85">
  <g id="그룹_2477" data-name="그룹 2477" transform="translate(-24.5 -37.56)">
    <path id="패스_676" data-name="패스 676" d="M31.45,41.11a2.253,2.253,0,0,0-.75-1.64,2.916,2.916,0,0,0-1.89-.55,3.368,3.368,0,0,0-1.81.44,1.406,1.406,0,0,0-.7,1.27,1.252,1.252,0,0,0,.54,1.11,7,7,0,0,0,2.06.72,16.565,16.565,0,0,1,2.2.64,3.721,3.721,0,0,1,1.46,1.02,2.691,2.691,0,0,1,.61,1.86,3.106,3.106,0,0,1-1.12,2.45,4.269,4.269,0,0,1-2.91.98,4.817,4.817,0,0,1-3.43-1.08,3.923,3.923,0,0,1-1.21-2.8l1.37-.12a2.461,2.461,0,0,0,1.01,2,3.776,3.776,0,0,0,2.2.63,3.34,3.34,0,0,0,1.96-.52,1.643,1.643,0,0,0,.75-1.42,1.482,1.482,0,0,0-.78-1.37,10.737,10.737,0,0,0-2.62-.85,5.75,5.75,0,0,1-2.65-1.18,2.564,2.564,0,0,1-.81-1.97,2.888,2.888,0,0,1,1.02-2.27,4.069,4.069,0,0,1,2.79-.9,4.55,4.55,0,0,1,2.91.89,3.3,3.3,0,0,1,1.17,2.54l-1.38.12Z" fill="#f2f4f5"/>
    <path id="패스_677" data-name="패스 677" d="M42.53,39.11h-3.6V49.2H37.48V39.11H33.91V37.75h8.62Z" fill="#f2f4f5"/>
    <path id="패스_678" data-name="패스 678" d="M52.64,49.2H51.01l-1.28-3.48H45.19l-1.2,3.48H42.47l4.18-11.45H48.2L52.64,49.2ZM49.3,44.51c-.89-2.48-1.39-3.89-1.51-4.22s-.24-.79-.38-1.35h-.04a13.1,13.1,0,0,1-.56,2.14l-1.22,3.43h3.7Z" fill="#f2f4f5"/>
    <path id="패스_679" data-name="패스 679" d="M63.05,49.2H61.24c-1.08-1.8-1.76-2.91-2.02-3.32a6.615,6.615,0,0,0-.83-1.06,2.106,2.106,0,0,0-.82-.56,3.484,3.484,0,0,0-1.01-.12H54.9v5.05H53.46V37.74h4.82a8.475,8.475,0,0,1,1.65.13,2.458,2.458,0,0,1,1.17.56,2.827,2.827,0,0,1,.78,1.07,3.524,3.524,0,0,1,.27,1.37,2.861,2.861,0,0,1-.78,2.09,3.832,3.832,0,0,1-2.27,1v.03a5.068,5.068,0,0,1,2.05,2.09l1.9,3.12ZM54.9,42.79h3.09a5.269,5.269,0,0,0,1.48-.17,1.607,1.607,0,0,0,.87-.65,1.871,1.871,0,0,0,.33-1.09,1.834,1.834,0,0,0-.54-1.33A2.472,2.472,0,0,0,58.34,39H54.9v3.78Z" fill="#f2f4f5"/>
    <path id="패스_680" data-name="패스 680" d="M71.79,39.11h-3.6V49.2H66.74V39.11H63.17V37.75h8.62v1.36Z" fill="#f2f4f5"/>
  </g>
</svg>
